# xmcd
#
# Track frame offsets:
# 150
# 1947
# 15939
# 31884
# 46618
# 47910
# 64044
# 80761
# 96959
# 97693
# 111885
# 127339
# 139233
# 158123
# 172793
# 186832
# 197917
# 212915
# 213586
# 231490
# 246840
# 263168
#
# Disc length: 3762 seconds
#
#
# Revision: 0
# Processed by: cddbd v1.5.2PL0 Copyright (c) Steve Scherf et al.
# Submitted via: FreeRIP 2.951 
#
DISCID=300eb016
DTITLE=João Pedro e Cristiano - acustico
DYEAR=2006
DGENRE=Country
TTITLE0=agradecimento
TTITLE1=chamada a cobrar
TTITLE2=dois passarinhos
TTITLE3=ira
TTITLE4=agradecimento
TTITLE5=por toda vida
TTITLE6=desatino
TTITLE7=a pinga
TTITLE8=agradecimento
TTITLE9=frisson
TTITLE10=coração
TTITLE11=pouti porri
TTITLE12=desejo de amor
TTITLE13=telefone mais
TTITLE14=mercedita
TTITLE15=pouti porri
TTITLE16=toma conta de mim
TTITLE17=oferecimento
TTITLE18=medida exata
TTITLE19=puoti porri
TTITLE20=anjoi moreno
TTITLE21=pouti porri
EXTD=
EXTT0=
EXTT1=
EXTT2=
EXTT3=
EXTT4=
EXTT5=
EXTT6=
EXTT7=
EXTT8=
EXTT9=
EXTT10=
EXTT11=
EXTT12=
EXTT13=
EXTT14=
EXTT15=
EXTT16=
EXTT17=
EXTT18=
EXTT19=
EXTT20=
EXTT21=
PLAYORDER=
